inDegrees=no
num_controls=7
num_derivatives=13
num_iterations=86
num_multipliers=7
num_parameters=0
num_slacks=7
num_states=26
objective=0.301636
objective_accelerations=0.000000
objective_balance=0.005276
objective_effort=0.079636
objective_height=0.207246
objective_ligament=0.009478
solver_duration=1221.849408
status=Solve_Succeeded
success=true
DataType=double
version=3
OpenSimVersion=4.5
endheader
time	/jointset/ground_pelvis/pelvis_tilt/value	/jointset/ground_pelvis/pelvis_tx/value	/jointset/ground_pelvis/pelvis_ty/value	/jointset/hip_l/hip_flexion_l/value	/jointset/hip_l/hip_adduction_l/value	/jointset/hip_l/hip_rotation_l/value	/jointset/back/lumbar_extension/value	/jointset/patellofemoral_l/patellar_flexion_l/value	/jointset/knee_l/knee_flexion_l/value	/jointset/knee_l/knee_adduction_l/value	/jointset/knee_l/knee_rotation_l/value	/jointset/ankle_l/ankle_angle_l/value	/jointset/subtalar_l/subtalar_angle_l/value	/jointset/ground_pelvis/pelvis_tilt/speed	/jointset/ground_pelvis/pelvis_tx/speed	/jointset/ground_pelvis/pelvis_ty/speed	/jointset/hip_l/hip_flexion_l/speed	/jointset/hip_l/hip_adduction_l/speed	/jointset/hip_l/hip_rotation_l/speed	/jointset/back/lumbar_extension/speed	/jointset/patellofemoral_l/patellar_flexion_l/speed	/jointset/knee_l/knee_flexion_l/speed	/jointset/knee_l/knee_adduction_l/speed	/jointset/knee_l/knee_rotation_l/speed	/jointset/ankle_l/ankle_angle_l/speed	/jointset/subtalar_l/subtalar_angle_l/speed	/forceset/tau_hip_flexion_l	/forceset/tau_hip_adduction_l	/forceset/tau_hip_rotation_l	/forceset/tau_knee_flexion_l	/forceset/tau_ankle_angle_l	/forceset/tau_subtalar_angle_l	/forceset/tau_lumbar_extension	lambda_cid13_p0	lambda_cid13_p1	lambda_cid13_p2	lambda_cid13_p3	lambda_cid13_p4	lambda_cid13_p5	lambda_cid14_p0	/jointset/ground_pelvis/pelvis_tilt/accel	/jointset/ground_pelvis/pelvis_tx/accel	/jointset/ground_pelvis/pelvis_ty/accel	/jointset/hip_l/hip_flexion_l/accel	/jointset/hip_l/hip_adduction_l/accel	/jointset/hip_l/hip_rotation_l/accel	/jointset/back/lumbar_extension/accel	/jointset/patellofemoral_l/patellar_flexion_l/accel	/jointset/knee_l/knee_flexion_l/accel	/jointset/knee_l/knee_adduction_l/accel	/jointset/knee_l/knee_rotation_l/accel	/jointset/ankle_l/ankle_angle_l/accel	/jointset/subtalar_l/subtalar_angle_l/accel	gamma_cid13_p0	gamma_cid13_p1	gamma_cid13_p2	gamma_cid13_p3	gamma_cid13_p4	gamma_cid13_p5	gamma_cid14_p0
0.5	-0.05496485351909169	-0.08640054123915999	0.4136823939285755	2.094202743081685	-0.2909878097577829	0.123988087415526	-0.9054638378245549	2.094364978768511	2.094364978768535	0.1744861197856136	-0.1743598961629831	0.2007887375479576	0.07715246119912526	0.3712005041756899	-0.1392110214112983	-0.05629141647030542	-0.006384314613744976	0.04860119081439015	0.01647461380036374	-1.139720556173586	-0.001504162443387761	-0.001504162443387799	-0.0009565084887045147	0.01510921229514713	-0.3846287296211757	-0.1086764326275235	-0.3689358240992274	-0.09985258324477411	-0.06062328191374584	-0.4002614629701107	0.296439990017608	0.002997943564054979	0.5075322093064026	41.46262150164987	1.013256406585008	-11.5528786728189	-110.1317863696285	-877.2518209987095	-28.70158964384027	-0.01957605673782594	-7.124972885948495	2.477251791251057	0.697675127258421	1.335115553903572	-0.56273835087126	0.5459729774527424	16.3199150306423	0.3370904194353683	0.3370904194352967	-0.4759073360674068	-0.1128122100056146	6.457586144701477	2.177355367100136	4.072484739861007e-08	1.645022570757352e-06	-1.081091282816467e-06	4.921494469211453e-09	3.70035270946144e-07	2.984626562957333e-06	-1.152098506887642e-07
0.51	-0.05159137369757883	-0.08767247855018737	0.4131558154421555	2.094194111388611	-0.2905440528200223	0.1241594207123199	-0.9160770453958871	2.094363519228568	2.094363519228604	0.1744622788384675	-0.1742311479062528	0.197255499009598	0.07615264417093538	0.3050853330620506	-0.1155213401755924	-0.04890779483017553	0.003683104771795718	0.03875496015924543	0.01575251982086787	-0.9858331170372813	0.0009005530079022594	0.0009005530079022242	-0.002863478564636302	0.009032485508585191	-0.3229807244985252	-0.09341330608561135	-0.3641078688655112	-0.09779928086656688	-0.06096660586087281	-0.3983098256680125	0.2880812394644769	0.00210662294798981	0.4983729088917596	38.89194248309897	1.816732475737189	-11.64244672602846	-100.3134409604291	-868.951310344387	-27.70155413504328	-0.01982835035879509	-6.116354673415914	2.263136358333907	0.7762687784630328	0.6962812919148759	-1.404514711091484	-0.6872340068261582	14.48633451346566	0.1454334844988308	0.1454334844988735	0.09419072278304258	-1.096425426403399	5.874143158786172	0.8817192836712393	-8.674580229349624e-08	7.710218358574778e-07	-4.480219684786926e-07	1.535393242969452e-07	4.386654723067888e-07	1.467572931597106e-06	-9.449917137888114e-08
0.52	-0.04883135867707088	-0.08871785703513697	0.4127065857913513	2.094256899121594	-0.2902405480464643	0.1242623463850836	-0.925238743344188	2.094376761118443	2.094376761118459	0.1744478247037824	-0.1742114314200695	0.194309887615013	0.07524164400535152	0.2485075439746397	-0.09389925619574617	-0.04082164934713561	0.007899570598758536	0.02055075797388448	0.002793088994356017	-0.8494186315673332	0.001436123520112294	0.001436123520112614	0.0009208540049959515	-0.006697141814853347	-0.2671033008663017	-0.09091306010631978	-0.3592799136317952	-0.09574597848835982	-0.06130992980800266	-0.3963581883659141	0.2797224889113459	0.001215302331924466	0.4892136084771165	36.35130331197861	2.610999609547247	-11.72603220367545	-91.01264569628604	-860.549590108069	-26.62583826007307	-0.0200690041357102	-5.217496480702809	2.063732340079113	0.8381798958404394	0.1649248421879831	-2.234332656914503	-1.901494391950451	12.82532429737095	-0.03673856838067397	-0.03673856838067525	0.6623531930453853	-2.043392317380929	5.303469846616007	-0.3752207454239834	-7.478674130316987e-08	-8.4920514612445e-07	7.072158895079897e-07	9.403604689491002e-09	4.137596864158144e-07	-1.332383795719883e-06	-1.67755191923137e-08
0.53	-0.04659906904331288	-0.08955724722154082	0.4123400457540295	2.094336513185276	-0.2901225532897115	0.1242194374438272	-0.9331111023299482	2.094388797558875	2.094388797558886	0.174481166290833	-0.1743514193332103	0.1919023297801664	0.07434229435749158	0.1986538763851917	-0.07431520566198518	-0.0325298463329297	0.007374945525077426	0.005450104151375666	-0.008912330442405084	-0.7268144259134715	0.0009392021567166978	0.0009392021567168949	0.004801481403793293	-0.01846679396228227	-0.2145658129567637	-0.08614744486044164	-0.3543780639969832	-0.09215175109777982	-0.06092310758833316	-0.393681717437365	0.2710676610313554	0.003258988547156197	0.4801720781735074	34.0170773201102	1.892440471042971	-11.33768721793487	-83.31962049007237	-850.8291050255694	-28.85952793540512	-0.02020401055420207	-4.763730592574182	1.855264462585848	0.8182374075297646	-0.2583452577460056	-0.7880375398759443	-0.4356714073980774	11.71377965008258	-0.06096809197908246	-0.06096809197909527	0.1089513685933864	-0.3185187074044411	5.205221958460423	1.323976756979133	-5.265301194404965e-07	-1.929966946243135e-06	1.585649069088181e-06	5.063052641651024e-08	5.255701221483573e-07	-3.002993559633765e-06	-1.813849859726508e-07
0.54	-0.04484420182435147	-0.09021089229209478	0.4120551351275136	2.094391443183088	-0.2900835862301755	0.124133353170631	-0.9398102570690319	2.094394904951342	2.094394904951296	0.1745249209229217	-0.1745240571766166	0.1900154135634826	0.07357490568156751	0.1530230610154081	-0.05675023302577085	-0.02449576718596685	0.002962757427401409	0.004745218530592112	-0.005841977393531725	-0.6147777822320577	0.000250313926916478	0.000250313926916545	0.003003463014449269	-0.01322712786893373	-0.1629749772337168	-0.06452086571914661	-0.3494762143621714	-0.08855752370720026	-0.06053628536866467	-0.3910052465088162	0.2624128331513648	0.005302674762387373	0.4711305478698981	31.70559687195083	1.177295695445561	-10.95833721984846	-76.05659597475481	-841.027430353889	-31.01996135000683	-0.02033307665292749	-4.372926036769963	1.659916760569752	0.7866351223918666	-0.6125877626110762	0.6448209834305576	1.053660105176438	10.71181190288136	-0.07513194166174403	-0.07513194166174687	-0.4733759645829345	1.358471330774571	5.11413940931776	2.996972033659389	-1.49130598342119e-06	-2.413873651534396e-06	2.157830264048422e-06	2.969395194072046e-07	7.88641058400538e-07	-3.424113066165473e-06	-6.141076907589281e-07
0.55	-0.04353479867066291	-0.09069921843824767	0.4118475658799862	2.094392385560286	-0.2899622169669164	0.1241515872695268	-0.9454301761310675	2.094393858950275	2.094393858950215	0.1745325679815102	-0.1745315193307236	0.1886403999425812	0.07312933843719246	0.1085792519748062	-0.04127673946573412	-0.0172309972659759	-0.002474113664490529	0.02358754708505618	0.01176061009309348	-0.509850638666158	-0.0004075577858379474	-0.0004075577858381153	-0.00128173859152491	0.01729063616823497	-0.1121429447530331	-0.01975501637656486	-0.3432541034505248	-0.08279148929077447	-0.06016433842869087	-0.3886759662764813	0.2535038178458084	0.007776638662998423	0.4611312653136848	29.41017088129776	0.2560035285431851	-10.52731194758635	-68.69634322412689	-829.8654020641569	-33.95969783726559	-0.02050330510582821	-4.522107945229846	1.436890422617473	0.6646471116115639	-0.4644563349994037	3.11206968668278	2.45437330268167	10.28647430978598	-0.05315130494242332	-0.05315130494245032	-0.3773603640918239	4.732170641857736	5.050036590328332	5.942198054403032	-1.688763557982105e-06	-1.969020705205572e-06	1.873293739115629e-06	3.487047898153999e-07	7.896781501315365e-07	-2.568903412493722e-06	-7.336600131526415e-07
0.5600000000000001	-0.04267823352888576	-0.09104364469502078	0.4117062941686205	2.094347915316086	-0.2895307982390672	0.1244140102897438	-0.950020162012176	2.094387826928307	2.094387826928307	0.1745031094029859	-0.1740670555041517	0.1877701669310635	0.07327659102021232	0.06245545863322274	-0.02797025514981837	-0.01123625995364133	-0.006119766857228153	0.06675511144865834	0.04299580687076309	-0.40879114604659	-0.0007468902529965098	-0.0007468902529968964	-0.004417664416985334	0.08115806827219259	-0.06201885535696269	0.05404309975983579	-0.3370319925388788	-0.07702545487434873	-0.05979239148871324	-0.3863466860441471	0.244594802540252	0.01025060256360941	0.4511319827574711	27.1346454542954	-0.6358397452495155	-10.13859932110954	-61.70293574602665	-818.5697396245858	-36.95129975411523	-0.02067094262836519	-4.708922896966254	1.226514911745576	0.5326286008605636	-0.2543441827801527	5.509868145258175	3.780181963385331	9.938281713615028	-0.01142409254246246	-0.01142409254246208	-0.2435208084801526	8.028404944132353	4.972550792395115	8.803425392423176	-9.654391852393176e-07	-4.096561769326815e-07	5.606959503112303e-07	1.670175931246038e-07	4.762746284371268e-07	-1.820987665778703e-07	-4.77407876675291e-07
